<svg version="1.1" id="Layer_1" xmlns="http://www.w3.org/2000/svg" xmlns:xlink="http://www.w3.org/1999/xlink" x="0px" y="0px"
	 width="100%" viewBox="0 0 1024 1024" enable-background="new 0 0 1024 1024" xml:space="preserve">
<path fill="#000000" opacity="1.000000" stroke="none" 
	d="
M314.906189,504.228210 
	C303.486938,497.900177 303.487274,497.900360 309.655426,487.128998 
	C310.317688,485.972473 311.036072,484.842743 311.619873,483.647614 
	C313.563934,479.667603 315.638519,479.515472 319.305634,482.227753 
	C332.022980,491.633850 346.473938,495.319214 362.197113,493.628082 
	C370.111786,492.776855 375.683380,487.817871 376.613983,481.285461 
	C377.577545,474.521790 374.324066,469.250885 366.766113,465.637787 
	C360.570190,462.675720 353.856934,461.260651 347.307556,459.353638 
	C341.556824,457.679199 335.786011,456.036896 330.136108,454.060150 
	C316.235413,449.196655 308.279053,439.389160 308.081390,424.586060 
	C307.889496,410.213257 312.904999,398.022552 326.583466,391.135101 
	C341.104767,383.823212 356.425659,383.893951 371.919678,387.079803 
	C378.957001,388.526825 385.646942,390.991699 392.015320,394.433716 
	C395.641266,396.393524 396.940643,398.450500 394.671539,402.309601 
	C393.076416,405.022430 391.995087,408.036865 390.677643,410.913574 
	C388.041473,416.669617 387.598114,416.822479 382.347046,413.512115 
	C371.838776,406.887604 360.423187,404.099854 348.035828,405.213287 
	C345.505341,405.440735 343.102234,406.040497 340.831696,407.098450 
	C335.755859,409.463654 332.758514,413.363220 332.315613,419.058502 
	C331.849823,425.048584 334.502655,429.270264 339.610657,432.191040 
	C345.325745,435.458893 351.645660,436.988892 357.900208,438.717316 
	C365.759186,440.889130 373.672211,442.857269 381.142517,446.263580 
	C394.451599,452.332428 400.809662,462.922791 400.673706,477.222260 
	C400.532501,492.074188 393.793396,503.216492 379.835419,509.014832 
	C359.888458,517.301086 340.101227,514.982483 320.598358,507.078064 
	C318.752258,506.329895 317.022552,505.294495 314.906189,504.228210 
z"/>
<path fill="#000000" opacity="1.000000" stroke="none" 
	d="
M693.175659,387.568756 
	C700.302307,389.147614 706.575012,391.739227 712.507751,395.218689 
	C714.932190,396.640564 715.678955,398.281128 714.289307,400.960480 
	C712.606018,404.206146 711.306519,407.648315 709.725403,410.950165 
	C707.268005,416.081696 706.415527,416.424347 701.395386,413.299774 
	C690.820923,406.718170 679.378174,404.126526 667.036255,405.275818 
	C656.213501,406.283661 649.948669,414.364685 652.293823,424.022949 
	C653.347168,428.361115 656.345642,430.760345 659.965576,432.676514 
	C666.510742,436.141113 673.778442,437.457489 680.786072,439.528259 
	C687.332520,441.462677 693.871643,443.371124 700.106873,446.211914 
	C714.734680,452.876343 720.444580,464.536591 719.349915,480.125519 
	C718.363525,494.172272 711.278503,504.277130 698.350281,509.105591 
	C673.368225,518.435913 649.643921,514.530090 627.411621,500.235321 
	C624.570374,498.408447 623.690063,496.258545 625.729858,493.171143 
	C628.378235,489.162659 629.421692,483.174255 633.533325,481.305908 
	C638.073486,479.242828 641.379333,485.055969 645.395386,487.081482 
	C656.916260,492.892151 668.949707,495.141602 681.693420,493.653809 
	C689.242920,492.772430 694.496033,488.226654 695.565674,481.995056 
	C696.792603,474.847931 693.551514,469.192230 686.108032,465.683502 
	C679.742554,462.683014 672.818054,461.423676 666.136719,459.405670 
	C660.884338,457.819336 655.584229,456.354706 650.425415,454.501648 
	C635.166016,449.020477 628.032898,439.487976 627.734192,424.535034 
	C627.413147,408.468109 635.194702,395.742767 649.203552,389.902130 
	C663.404480,383.981445 678.004639,383.963531 693.175659,387.568756 
z"/>
<path fill="#000000" opacity="1.000000" stroke="none" 
	d="
M570.236694,510.515930 
	C559.379089,514.906067 548.742065,515.161621 538.238831,511.001984 
	C527.207764,506.633301 521.139404,496.760193 521.699646,485.030914 
	C522.215332,474.235962 528.586426,466.316681 540.183960,462.861633 
	C551.678040,459.437408 563.577087,460.022675 575.391785,460.109711 
	C580.834778,460.149811 581.725220,458.995972 580.211060,453.608582 
	C578.316772,446.869171 572.773254,442.782013 564.832886,442.315033 
	C555.695557,441.777679 547.251831,444.006287 539.876282,449.396210 
	C536.919373,451.557098 535.200317,451.090363 533.453552,448.278381 
	C532.663635,447.006683 531.741882,445.816986 530.882507,444.588287 
	C525.408875,436.762299 525.505188,435.928497 534.112915,431.242096 
	C548.356995,423.487091 563.515198,421.823700 579.123657,425.768494 
	C595.370667,429.874664 603.653564,441.058899 603.981934,459.331024 
	C604.266357,475.155060 603.898743,490.989838 603.988831,506.818909 
	C604.011536,510.793457 602.295654,512.266174 598.566223,511.979248 
	C597.903809,511.928253 597.233643,511.985931 596.567322,511.975494 
	C592.738037,511.915405 588.771057,512.460388 585.113464,511.635559 
	C580.262756,510.541718 584.290588,504.853882 581.008545,502.247253 
	C577.644348,504.997711 574.879272,508.709167 570.236694,510.515930 
M580.624268,481.838867 
	C580.689148,480.181183 580.766296,478.523865 580.815918,476.865723 
	C580.880493,474.708862 580.059875,473.318695 577.670044,473.382446 
	C569.563599,473.598724 561.399719,472.486938 553.364624,474.345978 
	C547.808105,475.631561 544.526001,479.164948 544.213074,484.056213 
	C543.830505,490.034180 546.683838,494.450165 552.202332,496.389648 
	C561.797729,499.761902 577.874207,495.861481 580.624268,481.838867 
z"/>
<path fill="#000000" opacity="1.000000" stroke="none" 
	d="
M427.596313,618.694641 
	C441.567566,556.678223 455.483673,495.075653 469.400299,433.473206 
	C470.426117,428.932465 471.427002,424.385681 472.502930,419.856812 
	C472.766876,418.746033 473.019958,416.991394 473.722839,416.730316 
	C478.267914,415.042236 482.359344,417.523987 486.538605,418.703522 
	C489.597046,419.566742 488.418427,422.282013 487.999908,424.217194 
	C485.539642,435.592926 483.038605,446.962341 480.341339,458.283844 
	C466.201996,517.632263 453.480865,577.298401 440.240356,636.848267 
	C436.921112,651.776794 433.475647,666.677856 430.270050,681.630554 
	C429.407410,685.654419 427.646027,686.599670 423.620972,685.738464 
	C409.730469,682.766357 412.038269,683.967529 414.800446,671.943420 
	C418.856293,654.287903 423.276428,636.716064 427.596313,618.694641 
M472.869690,471.486938 
	C476.142242,457.100861 479.407349,442.713135 482.690643,428.329498 
	C484.177887,421.814209 483.935638,421.489655 476.651489,421.093964 
	C472.595917,438.276245 468.530365,455.521851 464.450836,472.764130 
	C463.747833,475.735291 465.168335,477.064240 467.916840,477.576752 
	C472.433655,478.419037 471.898346,474.757904 472.869690,471.486938 
M426.945007,677.359863 
	C428.713104,669.101318 430.447052,660.835205 432.259827,652.586487 
	C433.791473,645.617126 433.261353,644.966309 425.549438,645.402893 
	C422.918823,656.645447 420.258453,668.015198 417.282959,680.731628 
	C421.046844,679.082520 424.923462,684.809448 426.945007,677.359863 
z"/>
<path fill="#000000" opacity="1.000000" stroke="none" 
	d="
M399.256226,623.999634 
	C399.261383,629.329590 399.230225,634.160156 399.284271,638.989624 
	C399.314301,641.674072 399.209717,644.001160 395.548340,644.122803 
	C391.792267,644.247559 391.109222,642.087585 391.112366,639.045593 
	C391.128143,623.722534 391.107422,608.399536 391.100769,593.076477 
	C391.098602,588.089478 391.100403,583.102478 390.265198,577.835022 
	C389.532715,579.185608 388.745331,580.509583 388.076080,581.890808 
	C379.873199,598.820557 371.694550,615.762085 363.489136,632.690613 
	C362.424896,634.886169 361.740417,637.277100 358.405518,637.371765 
	C354.857178,637.472534 353.953430,635.018860 352.792236,632.649780 
	C343.858643,614.422668 334.944244,596.186157 325.045135,577.937317 
	C325.045135,579.744202 325.044495,581.551147 325.045227,583.358032 
	C325.052643,601.678894 325.077576,619.999817 325.044037,638.320557 
	C325.040253,640.386108 325.604858,642.803284 322.848053,643.843323 
	C319.375671,645.153259 316.894623,643.315491 316.868469,639.107605 
	C316.791901,626.783020 316.834717,614.457581 316.836884,602.132507 
	C316.838745,591.472961 316.770416,580.812378 316.910034,570.154602 
	C316.945587,567.440247 315.590607,563.674194 320.222626,563.078186 
	C324.376526,562.543823 327.644379,562.950989 329.873932,567.746216 
	C338.225891,585.709045 347.093323,603.432312 355.773438,621.242432 
	C356.353546,622.432739 356.983307,623.598877 358.069244,625.706421 
	C359.725800,622.563477 361.144165,620.052917 362.398651,617.463013 
	C370.455109,600.829895 378.464294,584.173767 386.515930,567.538269 
	C388.553741,563.327942 392.285980,561.866272 396.743591,563.242737 
	C399.952972,564.233765 399.195862,566.857483 399.203522,569.036255 
	C399.267273,587.190613 399.249023,605.345215 399.256226,623.999634 
z"/>
<path fill="#000000" opacity="1.000000" stroke="none" 
	d="
M547.296997,644.122803 
	C512.051941,636.028870 508.555908,597.044983 523.692078,577.403442 
	C536.776489,560.424438 565.788269,557.266113 582.004700,571.393188 
	C583.838562,572.990784 586.228455,574.357849 583.542297,577.412292 
	C581.164978,580.115601 579.583130,579.016479 577.327698,577.279358 
	C561.965332,565.447510 539.928955,568.314697 529.427185,583.387024 
	C518.404785,599.206604 522.602478,622.541626 538.765991,632.251282 
	C550.941772,639.565369 563.504883,638.778137 575.766418,631.772949 
	C578.052063,630.467102 578.843750,628.634460 578.962341,626.050232 
	C579.684692,610.305420 579.730225,610.308655 563.949219,610.239197 
	C562.616760,610.233337 561.284302,610.204529 559.952087,610.174805 
	C557.656860,610.123596 556.767273,608.877869 556.723877,606.656921 
	C556.676575,604.238159 557.537781,602.810486 560.122559,602.809998 
	C567.952393,602.808411 575.782288,602.810242 583.612122,602.805359 
	C586.210083,602.803711 587.106018,604.356873 587.112732,606.668213 
	C587.135376,614.498291 587.105774,622.328613 587.160950,630.158386 
	C587.179993,632.864441 585.517822,634.420227 583.584045,635.798950 
	C572.781189,643.501038 560.897095,646.634766 547.296997,644.122803 
z"/>
<path fill="#000000" opacity="1.000000" stroke="none" 
	d="
M498.857178,447.543884 
	C501.249817,455.939911 500.219879,464.136993 500.325958,472.255859 
	C500.476013,483.736023 500.245911,495.221832 500.456390,506.700134 
	C500.532318,510.840942 499.027222,512.547119 494.953156,512.158569 
	C493.634125,512.032715 492.292603,512.147034 490.961365,512.144409 
	C480.511658,512.123474 480.511658,512.122986 478.289429,502.488159 
	C476.082214,502.690796 475.965607,505.711182 473.770172,505.900848 
	C473.063416,502.422485 487.757141,438.490295 490.462341,433.957062 
	C495.068787,437.298584 496.930298,442.201477 498.857178,447.543884 
z"/>
<path fill="#000000" opacity="1.000000" stroke="none" 
	d="
M644.687317,594.057373 
	C648.565430,578.237427 657.983337,567.943970 673.368896,564.049133 
	C687.304382,560.521301 700.511597,562.252502 711.520325,572.619202 
	C714.489502,575.415161 714.009827,577.717773 710.476990,579.438538 
	C708.114746,580.589050 707.134583,578.637573 705.829163,577.591248 
	C696.365295,570.006104 685.684082,568.312744 674.304199,571.604553 
	C659.058960,576.014587 650.736877,590.329041 652.307861,608.602417 
	C653.526550,622.776733 665.379150,634.781311 679.781799,636.841064 
	C690.025391,638.306091 698.866028,635.520264 706.597656,628.908569 
	C708.613220,627.184998 710.166748,626.401184 712.596924,628.403564 
	C715.070374,630.441589 714.919617,631.837402 712.795898,633.999512 
	C702.808167,644.167725 683.870911,647.960693 669.503723,642.215698 
	C653.809814,635.940063 645.205994,624.175842 643.737671,607.362061 
	C643.363586,603.078796 643.336853,598.704468 644.687317,594.057373 
z"/>
<path fill="#000000" opacity="1.000000" stroke="none" 
	d="
M451.333923,498.926941 
	C450.601318,502.542633 449.776581,505.770111 449.193970,509.040710 
	C448.574707,512.516479 446.685242,513.562622 443.227142,513.310913 
	C425.884521,512.048340 414.182800,495.888702 418.947693,479.287445 
	C422.291809,467.636169 431.474579,463.065735 442.384369,461.099274 
	C446.623108,460.335236 450.981049,460.203918 455.292328,459.888489 
	C456.578125,459.794464 458.058990,459.630554 458.979156,460.879700 
	C460.652802,463.151733 456.621674,472.654419 453.779510,473.367554 
	C451.370758,473.971985 448.873383,474.437714 446.630981,475.445099 
	C442.197327,477.436798 440.252380,481.287842 440.444061,485.956573 
	C440.628174,490.442017 442.969727,493.747620 447.156647,495.696106 
	C448.682800,496.406342 451.022980,496.051758 451.333923,498.926941 
z"/>
<path fill="#000000" opacity="1.000000" stroke="none" 
	d="
M503.828430,638.394531 
	C504.387756,640.138306 505.545227,641.388245 504.800049,642.967407 
	C499.030243,645.124634 497.674225,644.652588 495.484528,639.567383 
	C493.707520,635.440491 491.919464,631.312805 490.334900,627.110596 
	C489.244293,624.218506 487.476410,623.037292 484.320312,623.080994 
	C473.663574,623.228577 463.002869,623.200989 452.345428,623.082275 
	C450.309296,623.059631 447.154816,624.058105 447.195068,620.278564 
	C447.232300,616.790222 449.228882,615.532349 452.756439,615.613892 
	C461.412048,615.814148 470.075745,615.718262 478.735382,615.646057 
	C480.485840,615.631470 482.398895,616.181702 484.645874,614.306274 
	C478.711884,600.901367 472.708069,587.338684 466.033020,572.259644 
	C461.318817,582.459900 457.279877,591.199036 453.240936,599.938232 
	C452.820953,599.802307 452.400940,599.666443 451.980927,599.530518 
	C452.996124,594.630615 453.974548,589.722778 455.036072,584.832947 
	C456.270538,579.146423 457.420258,573.437805 459.506683,567.970459 
	C460.542633,565.255676 461.403687,562.823853 465.205078,562.831787 
	C468.765961,562.839233 470.623779,564.314819 472.058594,567.386780 
	C482.132263,588.954895 491.975677,610.624695 501.317871,632.520630 
	C502.101746,634.357910 502.877869,636.198425 503.828430,638.394531 
z"/>
<path fill="#000000" opacity="1.000000" stroke="none" 
	d="
M444.160034,425.809448 
	C452.211334,424.590027 459.839661,422.892670 467.786224,425.018768 
	C467.372620,430.241394 465.690125,434.748047 464.513611,439.370911 
	C463.869080,441.903381 462.084198,442.246155 459.953247,442.204010 
	C451.038788,442.027710 442.823608,444.140045 435.721008,449.743469 
	C433.825684,451.238708 432.414459,450.796997 431.124786,449.009277 
	C429.763611,447.122437 428.339783,445.278442 427.035522,443.353271 
	C422.623749,436.841125 422.781342,436.216888 429.547729,431.811676 
	C433.920319,428.964966 438.740265,427.205994 444.160034,425.809448 
z"/>
<path fill="#000000" opacity="1.000000" stroke="none" 
	d="
M611.774414,628.994324 
	C611.779175,608.689209 611.786072,588.883179 611.789978,569.077148 
	C611.790527,566.358093 611.505249,563.705994 615.640564,563.612427 
	C619.733643,563.519897 620.234802,565.786011 620.221619,568.993713 
	C620.172607,580.976990 620.210571,592.960571 620.214111,604.944031 
	C620.217468,616.261780 620.184814,627.579712 620.243286,638.897156 
	C620.258728,641.882935 619.871094,644.128906 616.043823,644.150513 
	C612.250122,644.171997 611.683777,642.016052 611.767700,638.979858 
	C611.855103,635.820007 611.779846,632.655762 611.774414,628.994324 
z"/>
<path fill="#000000" opacity="1.000000" stroke="none" 
	d="
M490.332489,377.374451 
	C489.673859,379.900269 489.099731,382.045532 488.151367,385.589264 
	C485.666565,379.263519 485.988770,373.381958 481.668182,369.453094 
	C477.552429,365.710541 471.858673,366.064148 466.689209,363.379364 
	C479.799652,362.550293 487.033142,356.080231 487.505096,342.525757 
	C490.712769,347.638885 490.130707,353.571198 494.151794,357.587036 
	C498.330444,361.760284 504.166595,361.510101 510.861115,363.727142 
	C501.865601,366.576385 492.370392,366.540222 490.332489,377.374451 
z"/>
<path fill="#000000" opacity="1.000000" stroke="none" 
	d="
M454.936951,394.574829 
	C453.406769,394.026093 451.982483,392.838715 454.070038,392.471924 
	C459.378998,391.539062 462.632324,388.793549 464.014526,383.006073 
	C465.973755,388.806763 469.066925,392.505493 475.555450,393.127289 
	C469.305939,394.865601 464.876953,397.528473 464.222626,404.632935 
	C462.226349,399.782593 460.639557,395.404297 454.936951,394.574829 
z"/>
<path fill="#000000" opacity="1.000000" stroke="none" 
	d="
M496.721680,402.639221 
	C495.640350,402.286041 494.883881,402.046265 494.127411,401.806519 
	C498.906586,399.639618 503.544312,397.731232 504.500397,391.265137 
	C505.942535,397.375397 510.105438,399.712219 515.461426,401.330261 
	C509.381104,402.508759 505.642242,405.517731 504.901001,412.586273 
	C502.162506,408.224670 502.015747,403.384125 496.721680,402.639221 
z"/>
<path fill="#000000" opacity="1.000000" stroke="none" 
	d="
M526.878845,383.436829 
	C524.508545,384.274750 524.551575,386.890930 522.498779,388.141754 
	C521.299744,385.748322 519.825439,383.644135 517.072754,382.521759 
	C518.761230,380.455322 521.386475,379.931549 522.156067,377.525269 
	C526.983276,381.402710 526.983276,381.402710 526.878845,383.436829 
z"/>
<path fill="#000000" opacity="1.000000" stroke="none" 
	d="
M442.446594,367.877808 
	C444.612579,367.248779 445.229401,365.327026 446.835968,363.912537 
	C447.582611,366.450836 449.872345,367.260590 451.928528,368.876038 
	C449.874664,370.437500 447.973267,371.719788 446.827606,374.893524 
	C445.741821,371.559814 442.462952,371.033630 442.446594,367.877808 
z"/>
</svg>