<?xml version="1.0" encoding="utf-8"?>
<!-- Generator: Adobe Illustrator 29.7.1, SVG Export Plug-In . SVG Version: 9.03 Build 0)  -->
<svg version="1.1" id="layer" xmlns="http://www.w3.org/2000/svg" xmlns:xlink="http://www.w3.org/1999/xlink" x="0px" y="0px"
	 viewBox="0 0 599.95 110.06" enable-background="new 0 0 599.95 110.06" xml:space="preserve">
<path fill-rule="evenodd" clip-rule="evenodd" fill="#000041" d="M56.55,93c15.8,6,32.9-0.1,42.5-11.9c-8,8.2-21,12.4-32.8,7.7
	c-17.7-7.1-24-21.5-18.9-37.3c5-15.8,20.5-25.3,37.2-20c12.1,3.9,20.5,14,22.2,25.3c-1-15.1-11.7-29.2-27.7-34.3
	c-20.6-6.6-42.7,3.9-48.9,23.3C24.05,65.2,36.35,85.4,56.55,93"/>
<path fill-rule="evenodd" clip-rule="evenodd" fill="#4A3B83" d="M92.95,54c1.2,17.7-12.3,33.2-30,34.4
	c-12.8,0.9-24.9-6.7-30.8-17.3c6.6,14.7,22.4,25.3,39.4,24.2c21.8-1.5,38.4-20.5,37-42.3C106.95,31.1,91.65,36.3,92.95,54"/>
<path fill-rule="evenodd" clip-rule="evenodd" fill="#000041" d="M54.75,108.4c22.6-1,41.2-16.2,47.8-36.5
	c-6.2,14.8-20.5,25.5-37.5,26.2c-23.5,1-43.5-17.3-44.5-40.7c-1-23.5,17.3-43.5,40.8-44.5c17-0.7,32.2,8.7,39.7,22.8
	C92.75,16,72.85,2.5,50.25,3.5c-28.9,1.3-51.5,25.9-50.2,54.8C1.25,87.1,25.85,109.7,54.75,108.4"/>
<path fill-rule="evenodd" clip-rule="evenodd" fill="#A89DC3" d="M112.45,49.4c-0.4-9.7-3.7-16.4-7-22.7c-1.6,2.3-3,4.2-4.3,6
	C93.35,21.8,80.35,15,66.05,16c-17,1.2-30.9,13-35.4,28.5c4.4-11.3,15-19.6,27.9-20.5c38.2,0,34.8,35.7,25,51.1
	c-8.3,13.7-22.2,23.8-37.5,24.5c-18.4,0.8-34.6-9.4-42.7-25.1c8.4,21.6,30.4,36.6,54.8,35.5C89.45,108.7,113.85,81.5,112.45,49.4"/>
<path fill-rule="evenodd" clip-rule="evenodd" fill="#4A3B83" d="M114.65,70.3c0.5-3.8,1-7.9,1.3-12.1C115.95,26,89.85,0,57.75,0
	c-27.9,0-51.5,19.6-56.8,45.9c6.6-20.5,24.3-35.2,45.2-35.2c26.6,0,48.1,23.7,48.1,52.9c0,5.6-3.2,48.2,35.8,44.2
	C127.45,107,108.85,107.2,114.65,70.3"/>
<path fill="#4A3B83" d="M151.75,86.7h-10.2V23.3h36.9c16.5,0,24.8,6.3,24.8,18.8s-8.4,18.8-24.8,18.8h-26.7L151.75,86.7L151.75,86.7
	z M151.75,51.5h24.8c14.1,0,16.9-3.6,16.9-9.4s-2.8-9.5-16.9-9.5h-24.8V51.5z"/>
<path fill="#4A3B83" d="M274.85,86.7h-12.7l-19.5-26.8h-21.7v26.8h-10.1V23.3h36.4c20.9,0,25.3,10,25.3,18.3
	c0,11.5-9.1,16.7-17.8,17.9L274.85,86.7z M221.05,50.5h24.5c12.4,0,17.1-2.4,17.1-9c0-6.5-4.6-8.9-17.1-8.9h-24.5L221.05,50.5
	L221.05,50.5z"/>
<rect x="284.85" y="23.3" fill="#4A3B83" width="10.2" height="63.4"/>
<polygon fill="#4A3B83" points="373.75,86.7 364.35,86.7 317.95,35 317.95,86.7 308.05,86.7 308.05,23.3 320.55,23.3 363.55,70.8 
	363.55,23.3 373.75,23.3 "/>
<path fill="#4A3B83" d="M418.55,88.2c-22.2,0-36-12.7-36-33.1c0-20.6,13.8-33.3,35.9-33.3c15.6,0,28,6.8,33,18.2l0.6,1.3l-9,4.1
	l-0.6-1.4c-4.7-10.9-15.6-13.2-23.9-13.2c-16.5,0-25.6,9-25.6,25.2c0,14.3,9.8,22.8,26.3,22.8c11.1,0,19.2-4.5,24.1-13.5l0.7-1.2
	l9.1,4.4l-0.7,1.3C445.95,82.2,434.95,88.2,418.55,88.2"/>
<polygon fill="#4A3B83" points="518.55,86.7 460.65,86.7 460.65,23.3 517.55,23.3 517.55,32.7 470.85,32.7 470.85,49.1 509.85,49.1 
	509.85,58.5 470.85,58.5 470.85,77.3 518.55,77.3 "/>
<path fill="#4A3B83" d="M579.45,86.7h-55.1v-7.4l0.2-0.3c1.5-2.9,6-11.7,22.2-19.8c2.9-1.5,5.6-2.7,8.1-3.8
	c9.5-4.3,14.7-6.7,14.7-14.1c0-6.3-6.4-10.5-15.9-10.5c-12.9,0-17.4,6.4-19.9,12l-0.6,1.3l-8.5-4l0.4-1.2c1-2.9,6.8-17.1,27.8-17.1
	c16.9,0,26.6,7,26.6,19.2c0,13.5-10.2,17.9-20,22.2l-0.5,0.2c-9.6,4.2-16.7,7.4-22.7,14.3h43.2V86.7z"/>
<path fill="#4A3B83" d="M599.95,30.3c0,3.9-3.2,7-7.2,7s-7.2-3.1-7.2-7s3.2-7,7.2-7C596.75,23.3,599.95,26.4,599.95,30.3
	 M587.35,30.3c0,3.1,2.3,5.6,5.5,5.6c3,0,5.3-2.5,5.3-5.5c0-3.1-2.3-5.6-5.4-5.6C589.65,24.7,587.35,27.3,587.35,30.3 M591.65,33.9
	h-1.6v-7c0.6-0.1,1.5-0.2,2.7-0.2c1.3,0,1.9,0.2,2.4,0.6c0.4,0.3,0.7,0.8,0.7,1.5c0,0.9-0.6,1.4-1.4,1.7v0.1c0.7,0.2,1,0.8,1.2,1.7
	c0.2,1.1,0.4,1.4,0.5,1.7h-1.7c-0.2-0.3-0.3-0.9-0.5-1.7c-0.1-0.7-0.6-1.1-1.5-1.1h-0.8L591.65,33.9L591.65,33.9z M591.65,30h0.8
	c0.9,0,1.6-0.3,1.6-1c0-0.6-0.5-1.1-1.5-1.1c-0.4,0-0.7,0-0.9,0.1L591.65,30L591.65,30z"/>
</svg>
